<?xml version="1.0" standalone="no"?>
<!DOCTYPE svg PUBLIC "-//W3C//DTD SVG 20010904//EN"
 "http://www.w3.org/TR/2001/REC-SVG-20010904/DTD/svg10.dtd">
<svg version="1.0" xmlns="http://www.w3.org/2000/svg"
 width="700.000000pt" height="700.000000pt" viewBox="0 0 700.000000 700.000000"
 preserveAspectRatio="xMidYMid meet">
<metadata>
Created by potrace 1.14, written by Peter Selinger 2001-2017
</metadata>
<g transform="translate(0.000000,700.000000) scale(0.100000,-0.100000)"
fill="#000000" stroke="none">
<path d="M656 5688 l656 -1313 -433 -866 c-238 -477 -431 -871 -428 -876 2 -4
389 -9 859 -9 470 -1 861 -2 868 -3 6 0 306 -588 664 -1306 359 -718 655
-1305 658 -1305 3 0 298 585 655 1301 358 715 657 1304 665 1308 8 4 401 7
873 7 473 -1 860 1 862 4 1 3 -88 187 -200 410 -111 223 -307 614 -435 870
l-232 465 656 1313 656 1312 -875 0 -875 0 -437 -875 -438 -875 -875 0 -875 0
-438 875 -437 875 -875 0 -875 0 656 -1312z"/>
<path d="M2630 6995 c0 -11 865 -1735 871 -1735 3 0 31 53 63 118 32 64 63
127 70 138 6 12 78 156 160 320 81 165 152 306 157 314 5 8 95 188 200 400
105 212 194 389 199 395 4 5 11 20 14 33 l7 22 -870 0 c-479 0 -871 -2 -871
-5z"/>
</g>
</svg>
